<svg xmlns:xlink="http://www.w3.org/1999/xlink" xmlns="http://www.w3.org/2000/svg" width="139" height="42" viewBox="0 0 139 42" fill="none">
<path fill-rule="evenodd" clip-rule="evenodd" d="M15.2917 8.23637C13.77 8.23637 12.4818 8.72128 11.4282 9.69149C10.3596 10.6483 9.82624 11.8643 9.82624 13.3388V14.3754H13.2295V18.4139H9.82624V31.9614H5.7222V18.4139H4.00049V14.3754H5.7222V13.3388C5.7222 10.8277 6.6807 8.67504 8.59888 6.88084C10.5246 5.08703 12.7554 4.1836 15.2917 4.17017V8.23637Z" fill="white"/>
<mask id="mask0_1809_59170" style="mask-type:alpha" maskUnits="userSpaceOnUse" x="4" y="4" width="135" height="33">
<path fill-rule="evenodd" clip-rule="evenodd" d="M4 37H139V4H4V37Z" fill="white"/>
</mask>
<g mask="url(#mask0_1809_59170)">
<path fill-rule="evenodd" clip-rule="evenodd" d="M17.5503 31.9614H21.6547V4.17017H17.5503V31.9614Z" fill="white"/>
<path fill-rule="evenodd" clip-rule="evenodd" d="M83.6166 21.4779C83.6166 19.6347 82.9424 18.0432 81.595 16.7035C80.2459 15.3641 78.638 14.6943 76.7695 14.6943C74.901 14.6943 73.2926 15.3641 71.9444 16.7035C70.6101 18.0298 69.9427 19.6212 69.9427 21.4779C69.9427 23.348 70.6101 24.9461 71.9444 26.272C73.2791 27.5983 74.8879 28.2615 76.7695 28.2615C78.6515 28.2615 80.2598 27.5983 81.595 26.272C82.9424 24.9327 83.6166 23.3349 83.6166 21.4779M87.7208 21.4771C87.7208 24.4482 86.6462 27.0008 84.4977 29.1361C82.3485 31.2449 79.7729 32.2993 76.7697 32.2993C73.753 32.2993 71.1774 31.2449 69.0421 29.1361C66.9063 27.0143 65.8389 24.4613 65.8389 21.4771C65.8389 18.493 66.9063 15.9404 69.0421 13.8182C71.1905 11.6829 73.7669 10.6155 76.7697 10.6155C79.7729 10.6155 82.3485 11.6829 84.4977 13.8182C86.6462 15.9534 87.7208 18.5064 87.7208 21.4771" fill="white"/>
<path fill-rule="evenodd" clip-rule="evenodd" d="M103.707 19.7865C103.707 18.4072 103.2 17.2137 102.185 16.2056C101.171 15.1978 99.9697 14.6939 98.582 14.6939C97.1936 14.6939 95.9925 15.1978 94.9783 16.2056C93.9634 17.2137 93.4567 18.4072 93.4567 19.7865V31.9614H89.353V19.7865C89.353 17.3595 90.2797 15.2243 92.1354 13.3807C93.9904 11.5375 96.1393 10.6155 98.582 10.6155C101.01 10.6155 103.153 11.5375 105.008 13.3807C106.877 15.2377 107.811 17.373 107.811 19.7865V31.9614H103.707V19.7865Z" fill="white"/>
<path fill-rule="evenodd" clip-rule="evenodd" d="M127.199 21.478C127.199 19.6348 126.525 18.0433 125.177 16.7036C123.828 15.3643 122.22 14.6944 120.352 14.6944C118.483 14.6944 116.875 15.3643 115.526 16.7036C114.192 18.0299 113.525 19.6213 113.525 21.478C113.525 23.3481 114.192 24.9463 115.526 26.2722C116.861 27.5984 118.47 28.2616 120.352 28.2616C122.234 28.2616 123.842 27.5984 125.177 26.2722C126.525 24.9328 127.199 23.335 127.199 21.478V21.478ZM131.303 21.4776C131.303 24.4487 130.229 27.0013 128.08 29.1366C125.931 31.2454 123.355 32.2998 120.352 32.2998C117.336 32.2998 114.76 31.2454 112.625 29.1366C110.489 27.0148 109.421 24.4618 109.421 21.4776C109.421 18.5069 110.449 15.9607 112.504 13.8384C114.56 11.6901 117.062 10.616 120.012 10.616C122.788 10.616 125.184 11.5775 127.199 13.5005V4.17029H131.303V21.4776Z" fill="white"/>
<path fill-rule="evenodd" clip-rule="evenodd" d="M133.515 31.9619H137.619V10.9543H133.515V31.9619Z" fill="white"/>
<path fill-rule="evenodd" clip-rule="evenodd" d="M36.6866 10.6503L32.3797 21.4605L28.0243 10.6503H23.3579L30.0515 27.6091L25.9852 36.9089H30.6278L41.3442 10.6503H36.6866Z" fill="white"/>
<path fill-rule="evenodd" clip-rule="evenodd" d="M137.661 6.07993C137.661 7.22838 136.724 8.15986 135.568 8.15986C134.412 8.15986 133.475 7.22838 133.475 6.07993C133.475 4.93148 134.412 4 135.568 4C136.724 4 137.661 4.93148 137.661 6.07993" fill="white"/>
<path fill-rule="evenodd" clip-rule="evenodd" d="M61.5117 13.8936C59.4308 11.7331 56.9208 10.6526 53.9813 10.6526C51.2029 10.6526 48.7999 11.6197 46.7731 13.5534V4.17017H42.646V21.5763C42.646 23.3263 43.0119 24.9288 43.7421 26.3839C44.5009 26.5021 45.2582 26.6206 46.0186 26.7348C46.0858 26.7416 46.1837 26.7388 46.233 26.7001C47.0034 26.1128 49.0134 24.7917 49.7794 24.2012C49.785 24.1981 49.7858 24.1882 49.7981 24.1514C49.5873 24.0886 48.2423 23.2444 45.8977 21.8715C45.4189 21.5925 45.3449 21.5732 45.7923 21.1669C46.0477 20.9345 46.3149 20.7144 46.5591 20.4705C46.832 20.2034 47.1477 20.0848 47.5081 20.0742C48.7486 20.0311 52.0194 21.2238 53.3378 21.1823C53.5434 21.174 53.6914 21.093 53.8568 20.9784C54.8356 20.4018 56.8544 19.2423 57.9282 18.7253C58.8195 18.2962 61.0153 17.1165 61.8895 18.34C62.1369 18.6862 62.7637 19.5636 60.2545 21.3443C59.259 22.1952 48.1261 28.5536 46.2537 29.6443C48.323 31.5215 50.7849 32.4601 53.6389 32.4601C56.6456 32.4601 59.2296 31.3998 61.3908 29.2791C63.5516 27.1316 64.6329 24.5644 64.6329 21.5763C64.6329 18.6424 63.5917 16.0815 61.5117 13.8936" fill="white"/>
</g>
</svg>