<svg xmlns:xlink="http://www.w3.org/1999/xlink" xmlns="http://www.w3.org/2000/svg" viewBox="0 0 22 22" focusable="false" aria-hidden="true" role="presentation" class="w2 pl2" width="35" height="36"><circle cx="11" cy="11" r="11" fill="none"></circle><path d="M2.04231018,0.928830174 L2.04231018,2.01695472 C0.890573743,2.40009717 0.0632673205,3.43230614 0.0632673205,4.64303627 C0.0632673205,6.17885697 1.39473679,7.42878373 3.03163366,7.42878373 C3.57716698,7.42878373 4.02095714,7.84536407 4.02095714,8.35733526 C4.02095714,8.86921357 3.57716698,9.2857939 3.03163366,9.2857939 C2.60912246,9.2857939 2.15246594,9.03649588 1.74697792,8.58331964 C1.39513268,8.19079601 0.771114615,8.14036053 0.352859209,8.47009524 C-0.0654951698,8.80029437 -0.119632819,9.38592179 0.232212417,9.77844542 C0.761118449,10.3688099 1.38315707,10.7802816 2.04231018,10.9877823 L2.04231018,12.0715414 C2.04231018,12.5845343 2.48540754,13 3.03163366,13 C3.57795875,13 4.02095714,12.5845343 4.02095714,12.0715414 L4.02095714,10.9834168 C5.17269358,10.5999028 6,9.56769386 6,8.35733526 C6,6.82114303 4.66853053,5.57149492 3.03163366,5.57149492 C2.48610034,5.57149492 2.04231018,5.15500747 2.04231018,4.64303627 C2.04231018,4.13115797 2.48610034,3.7142061 3.03163366,3.7142061 C3.38229123,3.7142061 3.75224833,3.88223148 4.10181722,4.19970563 C4.49453786,4.55637642 5.12083228,4.54653082 5.50088452,4.17824966 C5.88093676,3.80968984 5.87054471,3.22183322 5.47812098,2.86525532 C4.97593737,2.40919971 4.4732589,2.15117068 4.02095714,2.01045291 L4.02095714,0.928830174 C4.02095714,0.415837269 3.57795875,0 3.03163366,0 C2.48540754,0 2.04231018,0.415837269 2.04231018,0.928830174" transform="translate(8.000000, 4.50000)" fill="#C0C1C6"></path></svg>