<svg xmlns:xlink="http://www.w3.org/1999/xlink" xmlns="http://www.w3.org/2000/svg" class="grey-100 flex-shrink-0" width="35" height="36" viewBox="0 0 27 37"><g fill="#2F3143" fill-rule="nonzero"><path d="M13.5 0C6.056 0 0 5.835 0 13.008c0 2.423.697 4.788 2.015 6.84l10.717 16.64c.205.318.566.512.955.512h.01c.392-.003.754-.203.956-.527l10.443-16.8A12.636 12.636 0 0027 13.007C27 5.835 20.944 0 13.5 0zm9.665 18.56L13.67 33.833 3.928 18.706a10.536 10.536 0 01-1.693-5.698C2.235 7.03 7.297 2.154 13.5 2.154S24.758 7.03 24.758 13.008c0 1.96-.556 3.88-1.593 5.551z" fill="#2F3143"></path><path d="M12.98 6C9.26 6 6.23 8.916 6.23 12.5c0 3.561 2.98 6.5 6.75 6.5 3.818 0 6.75-2.978 6.75-6.5 0-3.584-3.027-6.5-6.75-6.5zm0 10.848c-2.494 0-4.514-1.953-4.514-4.348 0-2.39 2.033-4.348 4.515-4.348 2.481 0 4.507 1.959 4.507 4.348 0 2.36-1.973 4.348-4.507 4.348z" fill="#2F3143"></path></g></svg>