<svg xmlns:xlink="http://www.w3.org/1999/xlink" xmlns="http://www.w3.org/2000/svg" viewBox="0 0 16 12" focusable="false" aria-hidden="true" role="presentation" class="w1 ml2 di" width="16"  height="12" ><g transform="translate(16 0) rotate(180)"><path d="M.274,11.732a.9.9,0,0,1,0-1.293L4.8,6,.274,1.561a.9.9,0,0,1,0-1.292.946.946,0,0,1,1.319,0L6.727,5.3A.9.9,0,0,1,7,6a.9.9,0,0,1-.271.7L1.593,11.732a.946.946,0,0,1-1.319,0Z" transform="translate(7) rotate(-180)" fill="#2F3143"></path><path d="M0,1H-14" transform="translate(1 -5) rotate(-180)" fill="none" stroke="#2F3143" stroke-linecap="round" stroke-miterlimit="10" stroke-width="2px"></path></g></svg>