<?xml version="1.0" encoding="utf-8"?>
<!-- Generator: Adobe Illustrator 25.2.3, SVG Export Plug-In . SVG Version: 6.00 Build 0)  -->
<svg version="1.1" id="Layer_1" focusable="false" xmlns="http://www.w3.org/2000/svg" xmlns:xlink="http://www.w3.org/1999/xlink"
	 x="0px" y="0px" viewBox="0 0 16 12" style="enable-background:new 0 0 16 12;" xml:space="preserve">
<style type="text/css">
	.st0{fill:#F4F4F4;stroke:#F4F4F4;stroke-miterlimit:10;}
	.st1{fill:#F4F4F4;stroke:#F4F4F4;stroke-width:2;stroke-linecap:round;stroke-miterlimit:10;}
</style>
<g transform="translate(16 0) rotate(180)">
	<path class="st0" d="M6.7-11.7c0.4,0.3,0.4,0.9,0,1.3c0,0,0,0,0,0L2.2-6l4.5,4.4c0.4,0.3,0.4,0.9,0,1.3c0,0,0,0,0,0
		c-0.4,0.4-1,0.4-1.3,0l-5.1-5C0.1-5.5,0-5.7,0-6c0-0.3,0.1-0.5,0.3-0.7l5.1-5C5.8-12.1,6.4-12.1,6.7-11.7z"/>
	<path class="st1" d="M1-6h14"/>
</g>
</svg>
