<svg xmlns:xlink="http://www.w3.org/1999/xlink" xmlns="http://www.w3.org/2000/svg" viewBox="0 0 14 14" focusable="false" aria-hidden="true" role="presentation" class="w-90 white" width="14"  height="14" ><g transform="translate(-6.000000, -6.000000)" fill="#FFFFFF"><g transform="translate(8.000000, 8.000000)" fill="#FFFFFF"><path d="M0.439615385,0.439471154 C0.718557692,0.160528846 1.10552885,0 1.5,0 C1.89447115,0 2.28144231,0.160528846 2.56197115,0.439471154 C2.84105769,0.718557692 3,1.10552885 3,1.5 C3,1.89447115 2.84105769,2.28144231 2.56197115,2.56052885 C2.28144231,2.83947115 1.89605769,3 1.5,3 C1.10552885,3 0.718557692,2.83947115 0.439615385,2.56052885 C0.160528846,2.28144231 0,1.89447115 0,1.5 C0,1.10552885 0.160528846,0.718557692 0.439615385,0.439471154 Z" fill="#FFFFFF"></path><path d="M9.56052885,9.56038462 C9.28144231,9.83947115 8.89447115,10 8.5,10 C8.10552885,10 7.71855769,9.83947115 7.43961538,9.56038462 C7.15908654,9.28144231 7,8.89591346 7,8.5 C7,8.10538462 7.15908654,7.71855769 7.43961538,7.43947115 C7.71855769,7.16038462 8.10552885,7 8.5,7 C8.89447115,7 9.28144231,7.16038462 9.56052885,7.43947115 C9.83961538,7.71855769 10,8.10538462 10,8.5 C10,8.89605769 9.83961538,9.28158654 9.56052885,9.56038462 Z" fill="#FFFFFF"></path><path d="M9.54427113,0.45562688 C10.1519096,1.06327902 10.1519096,2.0486002 9.54427113,2.65625234 L2.65645457,9.54422349 C2.35256051,9.84797474 1.95440093,10 1.55609172,10 C1.15778252,10 0.759622938,9.84812437 0.455728874,9.54422349 C-0.151909625,8.93657135 -0.151909625,7.95125017 0.455728874,7.34359803 L7.34354543,0.45562688 C7.95148319,-0.151875627 8.936483,-0.151875627 9.54427113,0.45562688 Z" stroke="#2F3143" fill="#FFFFFF"></path></g></g></svg>